<?xml version="1.0" encoding="utf-8"?>
<!-- Generator: Adobe Illustrator 16.2.1, SVG Export Plug-In . SVG Version: 6.00 Build 0)  -->
<!DOCTYPE svg PUBLIC "-//W3C//DTD SVG 1.1//EN" "http://www.w3.org/Graphics/SVG/1.1/DTD/svg11.dtd">
<svg version="1.1" id="Layer_2" xmlns="http://www.w3.org/2000/svg" xmlns:xlink="http://www.w3.org/1999/xlink" x="0px" y="0px"
	 width="400px" height="400px" viewBox="0 0 400 400" enable-background="new 0 0 400 400" xml:space="preserve">
<path fill="#FFFFFF" d="M242.822,15h-85.633c-20.792,0-37.707,16.913-37.707,37.702v290.06c0,20.791,16.915,37.706,37.707,37.706
	c0,0,85.396-0.014,85.595-0.014c20.8,0,37.718-16.915,37.718-37.704l0.015-290.046C280.516,31.913,263.608,15,242.822,15"/>
<path fill="#CECECE" d="M221.701,83.086c2.57,1.568,3.938,2.783,6.588,4.48c6.939,4.416,15.541,12.225,14.452,39.153
	c1.968,5.88,2.832,17.431,4.677,21.106c3.617,7.24,6.027,11.906,7.084,18.699c0,0,1.058,10.628,2.412,11.381
	c7.234,1.65,5.133,2.334,6.18,3.615c1.127,1.432,5.322,1.399,5.312,5.256c1.454,1.936,2.521,3.925,3.357,6.049V52.702
	c0-16.001-12.961-28.95-28.94-28.95H215.17c4.438,1.583,6.91,3.464,8.436,6.409c3.535,0.3,7.762,8.304,1.178,20.109
	c2.878,1.971,0.626,4.91-1.421,8.32c-0.668,1.038-1.351,3.001-3.25,2.87c-2.599,5.302-5.603,10.419-7.854,10.724
	c-0.681,0.824-1.17,3.126-0.189,4.183c3.391,1.506,7.479,3.558,9.507,5.52L221.701,83.086z"/>
<path fill="#CECECE" d="M247.145,371.368c12.669-7.69,4.801-22.271,2.381-30.867c-0.133-0.478,0.243-1.117,0.459-1.52
	c0.634-1.171-0.725-3.921-0.725-3.921c-1.508-1.347-1.924-8.476-2.743-11.743c-1.36-5.43,2.415-14.769,2.415-17.938
	c0-3.167-2.415-7.555-6.785-13.123c-1.057-1.203-4.258-28.402-7.092-35.279c-3.92-9.498-5.125-7.988-9.795-19.302
	c-3.621-7.987-0.76-19.741-8.904-47.037c0.041,0.134,1.826-1.658,1.826-1.658s-6.49-23.664-8.6-30.152
	c-2.113-6.479-5.89-6.934-5.89-6.934s0.034-2.636,0.226-3.314c0.303-1.057,7.844-20.793,8.52-21.411
	c0.044-0.449,10.949-7.887,11.166-6.78c0.896,4.825,5.126,29.398,6.932,33.315c1.803,3.926,8.133,15.984,11.07,23.44
	c-11.318,2.742-19.719,12.941-19.719,25.1c0,14.271,11.562,25.842,25.837,25.842c10.887,0,20.247-6.747,24.05-16.29l-0.02,130.962
	c0,14.555-10.476,26.479-24.345,28.61H247.145L247.145,371.368z"/>
<path fill="#9E9E9E" d="M186.303,332.489h-3.185v11.778h2.966c3.313,0,3.694-1.626,3.694-5.925
	C189.779,335.379,189.398,332.489,186.303,332.489 M189.342,320.399c0-3.038-0.646-4.734-3.09-4.734h-3.134v9.785h2.741
	C189.018,325.45,189.342,323.104,189.342,320.399 M213.818,314.846h-0.111l-0.062,1.004l-2.491,19.485h4.988l-2.277-19.485
	L213.818,314.846z M239.129,337.17c-4.61-4.142-1.518-5.865-1.744-7.518c-3.01-12.665-13.11-20.36-7.909-24.521
	c-1.276-4.217-3.858-9.463-3.759-9.415c-15.685-9.047-29.108-23.66-31.361-25.777c-2.719-3.002-7.398-6.021-8.298-8.438
	c-3.769-3.47-22.32-29.702-26.532-39.345l-7.545-1.062c-3.38-13.923-14.775-25.626-15.064-39.646
	c-0.123-5.298,2.407-16.584,3.315-18.851c0.899-2.25,5.278-6.019,5.278-6.019V152.8c-16.373,0.487-11.643-1.189-14.48-7.536
	c-1.973-4.419-0.579-5.377,0.145-8.45c2.16-8.955,9.498-22.918,12.521-29.239c0.906-3.175,4.068-10.86,4.068-10.86
	c12.215-24.877,16.742-23.061,31.203-24.423l0.764-1.055c14.516-0.611,12.152-1.751,14.165-15.676
	c-2.113,0.9-2.712-4.372-2.712-4.372c-1.168-7.998,2.189-6.482,3.766-6.637c0.37-13.059,1.659-17.181,11.165-20.802h-48.925
	c-15.996,0-28.952,12.952-28.952,28.953v290.059c0,15.977,12.956,28.957,28.952,28.957h85.629
	C233.019,366.438,238.816,356.322,239.129,337.17 M169.403,351.651h-9.729l-7.016-25.249l-0.244-1.563h-0.086v26.812h-8.668v-43.354
	h9.785l6.9,23.817l0.31,1.728h0.097v-25.545h8.651V351.651L169.403,351.651z M187.301,351.651h-14.477v-43.354h14.154
	c7.265,0,10.787,2.763,10.787,10.204c0,4.552-0.639,8.565-5.473,10.191v0.111c4.885,0.865,6.551,4.505,6.551,9.979
	C198.844,346.059,196.194,351.651,187.301,351.651 M218.049,351.651l-0.924-9.529h-7.007l-1.026,9.529h-9.986l8.043-43.354h13.236
	l8.14,43.354H218.049z"/>
</svg>
